<svg width="2250" height="1110" xmlns="http://www.w3.org/2000/svg" preserveAspectRatio="xMidYMid meet">
 <g>
  <title>background</title>
  <rect x="-1" y="-1" width="2252" height="1112" id="canvas_background" fill="none"/>
 </g>

 <g>
  <title>Layer 1</title>
  <g id="layer101" fill="#020202"/>
  <g id="layer102" fill="#f8f8f8">
   <path d="m307.142857,803.571428c-56,-18 -118,-68 -136,-111c-55,-132 66,-266 254,-280c71,-6 124,12 146,48c11,18 -1,39 -12,22c-24,-37 -131,-45 -197,-15c-69,31 -135,123 -135,187c0,65 73,124 153,124c38,0 49,-5 71,-31c28,-32 32,-55 16,-79c-9,-13 -12,-12 -25,5c-17,21 -39,15 -59,-18c-31,-49 70,-45 107,5c18,24 19,32 8,67c-9,31 -22,46 -55,66c-48,28 -71,30 -136,10z" id="svg_2"/>
   <path d="m591.142857,809.571428c-11,-5 -33,-23 -47,-41c-85,-101 43,-268 166,-216c42,17 44,23 20,63c-20,36 -13,71 23,106c34,34 74,35 111,3c24,-21 28,-32 31,-93c8,-132 -35,-210 -141,-263c-54,-26 -76,-31 -138,-32c-42,0 -93,7 -119,16c-57,20 -89,20 -97,1c-24,-65 195,-102 322,-54c71,26 142,95 180,174c23,48 29,78 33,147c5,98 -6,137 -46,168c-51,41 -145,15 -190,-51c-19,-27 -23,-43 -19,-81l4,-48l-33,0c-23,0 -43,10 -68,34c-41,38 -44,54 -17,87l20,24l42,-23c33,-17 44,-19 51,-10c11,18 22,78 15,84c-10,11 -82,14 -103,5z" id="svg_3"/>
   <path d="m1017.142857,813.571428c0,-3 11,-22 24,-43c38,-58 51,-115 38,-161c-12,-37 -64,-94 -122,-133c-19,-12 -22,-19 -14,-28c9,-9 20,-8 49,4c21,9 40,16 42,16c3,0 3,-74 1,-165c-1,-91 0,-165 4,-165c4,0 24,14 45,32c21,18 40,34 42,35c2,2 1,6 -3,10c-4,4 -15,2 -25,-4c-17,-11 -19,-3 -23,140c-4,118 -3,155 8,167c23,27 54,104 54,137c0,41 -16,82 -43,111c-22,24 -77,57 -77,47z" id="svg_4"/>
   <path d="m1289.142857,798.571428c-61,-38 -81,-90 -56,-154c7,-17 4,-19 -34,-12l-42,6l0,-45l0,-45l86,7l87,6l-17,-25c-18,-27 -38,-88 -30,-88c3,0 17,14 31,31c15,18 32,28 40,25c8,-4 28,7 45,25c27,26 29,33 20,54c-7,16 -37,37 -79,57c-72,35 -90,61 -57,85c10,7 35,13 56,13c30,0 42,-6 60,-30c27,-37 38,-37 68,-5c17,18 34,25 61,25c47,0 78,-25 89,-74c11,-52 -3,-136 -26,-154c-45,-34 -126,-62 -223,-76c-127,-19 -151,-33 -151,-83c0,-31 8,-45 53,-89c60,-57 126,-81 195,-69c77,13 132,71 132,139c0,32 -7,33 -32,1c-33,-43 -103,-77 -158,-78c-37,-1 -59,6 -96,29c-56,34 -76,60 -56,73c8,4 44,11 80,14c125,10 253,75 297,151c65,111 33,264 -60,282c-23,4 -47,-1 -81,-15c-42,-19 -49,-20 -56,-6c-12,20 -61,45 -90,45c-13,0 -38,-9 -56,-20z" id="svg_5"/>
   <path d="m1744.142857,804.571428c-49,-18 -66,-41 -67,-89c-1,-127 146,-191 175,-76c9,38 -18,62 -67,57c-30,-3 -38,0 -38,13c0,50 99,59 172,16c100,-58 131,-105 114,-172c-17,-68 -118,-137 -225,-154c-58,-9 -156,-2 -182,14c-12,8 -39,-13 -39,-31c0,-44 194,-71 287,-40c97,32 178,128 190,223c6,55 -19,128 -60,171c-63,68 -179,98 -260,68z" id="svg_6"/>
   <path d="m308.142857,689.571428c-25,-25 -26,-42 -7,-79c32,-61 96,-102 159,-102c46,0 65,15 51,37c-9,15 -23,17 -75,15c-57,-3 -67,-1 -92,22c-29,27 -35,63 -16,98c15,28 4,33 -20,9z" id="svg_7"/>
   <path d="m791.142857,670.571428c-9,-14 -8,-22 2,-37c19,-25 18,-70 -2,-100c-18,-27 -81,-55 -124,-55c-17,0 -30,-5 -30,-12c0,-7 -7,-25 -14,-40c-15,-28 -15,-28 17,-28c39,0 125,39 150,68c11,11 25,38 33,59c31,88 5,205 -32,145z" id="svg_9"/>
   <path d="m1912.142857,621.571428c-16,-66 -93,-124 -145,-109c-11,3 -28,8 -38,11c-13,4 -22,-2 -30,-20c-21,-45 -17,-48 66,-43c88,5 144,29 186,78c32,39 33,60 3,88c-30,28 -33,28 -42,-5z" id="svg_12"/>
  </g>
 </g>
</svg>